<?xml version="1.0" encoding="UTF-8" standalone="no"?>
<svg
   xmlns:dc="http://purl.org/dc/elements/1.1/"
   xmlns:cc="http://creativecommons.org/ns#"
   xmlns:rdf="http://www.w3.org/1999/02/22-rdf-syntax-ns#"
   xmlns:svg="http://www.w3.org/2000/svg"
   xmlns="http://www.w3.org/2000/svg"
   xmlns:sodipodi="http://sodipodi.sourceforge.net/DTD/sodipodi-0.dtd"
   xmlns:inkscape="http://www.inkscape.org/namespaces/inkscape"
   inkscape:version="1.0 (4035a4f, 2020-05-01)"
   sodipodi:docname="Telepass (azienda) logo 2003.svg"
   xml:space="preserve"
   viewBox="0 0 166.52531 34.412907"
   height="34.412907"
   width="166.52531"
   y="0px"
   x="0px"
   id="Livello_1"
   version="1.1"><metadata
   id="metadata1486"><rdf:RDF><cc:Work
       rdf:about=""><dc:format>image/svg+xml</dc:format><dc:type
         rdf:resource="http://purl.org/dc/dcmitype/StillImage" /><dc:title></dc:title></cc:Work></rdf:RDF></metadata><defs
   id="defs1484">
	
	
	
	
<clipPath
   id="clip0"><rect
     y="0"
     x="0"
     width="200"
     height="48"
     fill="#ffffff"
     id="rect2125" /></clipPath></defs><sodipodi:namedview
   inkscape:current-layer="Livello_1"
   inkscape:window-maximized="1"
   inkscape:window-y="25"
   inkscape:window-x="0"
   inkscape:cy="24.423959"
   inkscape:cx="97.35264"
   inkscape:zoom="2.0553915"
   fit-margin-bottom="0"
   fit-margin-right="0"
   fit-margin-left="0"
   fit-margin-top="0"
   inkscape:pagecheckerboard="true"
   inkscape:guide-bbox="true"
   showguides="true"
   showgrid="false"
   id="namedview1482"
   inkscape:window-height="793"
   inkscape:window-width="1440"
   inkscape:pageshadow="2"
   inkscape:pageopacity="0"
   guidetolerance="10"
   gridtolerance="10"
   objecttolerance="10"
   borderopacity="1"
   bordercolor="#666666"
   pagecolor="#ffffff" />
<style
   id="style1455"
   type="text/css">
	.st0{fill:#203C84;}
	.st1{fill:#0060A1;}
	.st2{fill:#FFE400;}
	.st3{fill-rule:evenodd;clip-rule:evenodd;fill:#0060A1;}
</style>




<path
   sodipodi:nodetypes="sssssssss"
   d="M 12.240941,0.95645499 H 160.3664 c 2.80788,0 5.90072,2.60895101 5.06835,5.54033201 l -6.08202,21.419325 c -0.83237,2.93139 -2.26048,5.54034 -5.06835,5.54034 H 6.1589168 c -2.807868,0 -5.90072001,-2.60895 -5.068353,-5.54034 L 7.1725868,6.496787 C 8.0049538,3.565406 9.4330728,0.95645499 12.240941,0.95645499 Z"
   style="fill:#fee01a;fill-opacity:1;stroke:#0057b7;stroke-width:1.91291;stroke-linecap:round;stroke-linejoin:round;stroke-miterlimit:4;stroke-dasharray:none;stroke-opacity:1"
   id="rect2049" /><path
   style="fill:#0057b7;fill-opacity:1"
   class="st1"
   d="m 16.712658,27.256452 h -4.2 l 3.6,-17.099997 h -6 l 0.7,-3.4 h 16.2 l -0.8,3.4 h -6 z m 8.6,0 4.3,-20.599997 h 15.3 l -0.7,3.4 h -11 l -1,4.699997 h 10.7 l -0.7,3.4 h -10.8 l -1.3,5.6 h 12 l -0.7,3.4 h -16.1 z m 19.3,0 4.3,-20.599997 h 4.2 l -3.6,17.099997 h 10.5 l -0.7,3.4 h -14.7 z m 17.4,0 4.3,-20.599997 h 15.3 l -0.7,3.4 h -11 l -1,4.699997 h 10.7 l -0.7,3.4 h -10.8 l -1.3,5.6 h 12 l -0.7,3.4 h -16.1 z m 23.4,0 h -4.2 l 4.3,-20.599997 h 8.400007 c 1.5,0 2.7,0.2 3.5,0.5 0.9,0.4 1.6,0.9 2.1,1.7 0.499995,0.8 0.799995,1.8 0.799995,2.9 0,0.999997 -0.2,2.099997 -0.599995,2.999997 -0.4,1 -0.9,1.8 -1.5,2.4 -0.6,0.6 -1.2,1 -1.9,1.3 -0.7,0.3 -1.6,0.5 -2.7,0.7 -0.7,0.1 -1.9,0.1 -3.7,0.1 h -2.70001 z m 2.399997,-11.2 h 1.30001 c 2.2,0 3.7,-0.1 4.5,-0.4 0.7,-0.3 1.3,-0.7 1.8,-1.3 0.4,-0.6 0.6,-1.3 0.6,-2 0,-0.5 -0.1,-0.899997 -0.3,-1.199997 -0.2,-0.3 -0.5,-0.6 -0.9,-0.7 -0.4,-0.1 -1.3,-0.2 -2.7,-0.2 h -3 z m 23.900005,6.7 h -8.2 l -2.5,4.5 H 96.612665 L 108.21266,6.656455 h 4.7 l 3.3,20.599997 h -4 z m -0.5,-3.5 -1.2,-8.299997 -5,8.299997 z m 8.5,1.4 4,-0.2 c 0.1,1.3 0.3,2.2 0.7,2.6 0.6,0.7 1.8,1.1 3.4,1.1 1.4,0 2.4,-0.2 3,-0.7 0.6,-0.5 0.9,-1.1 0.9,-1.8 0,-0.6 -0.3,-1.1 -0.8,-1.5 -0.4,-0.3 -1.3,-0.8 -2.9,-1.5 -1.6,-0.7 -2.8,-1.3 -3.5,-1.7 -0.7,-0.5 -1.3,-1.1 -1.7,-1.8 -0.4,-0.7 -0.6,-1.6 -0.6,-2.6 0,-1.699997 0.6,-3.199997 1.9,-4.299997 1.3,-1.1 3.1,-1.7 5.4,-1.7 2.4,0 4.3,0.6 5.6,1.7 1.3,1.1 2.1,2.6 2.2,4.499997 l -4.1,0.2 c -0.1,-1 -0.5,-1.699997 -1.1,-2.299997 -0.6,-0.5 -1.5,-0.8 -2.7,-0.8 -1.2,0 -2,0.2 -2.5,0.6 -0.5,0.4 -0.8,0.9 -0.8,1.599997 0,0.6 0.2,1.1 0.7,1.5 0.5,0.4 1.5,0.9 3,1.6 2.4,1 3.9,1.8 4.5,2.5 1,0.9 1.4,2.1 1.4,3.6 0,1.8 -0.7,3.4 -2.2,4.7 -1.4,1.3 -3.4,1.9 -6,1.9 -1.8,0 -3.3,-0.3 -4.6,-0.9 -1.3,-0.6 -2.2,-1.4 -2.7,-2.5 -0.3,-1.3 -0.6,-2.5 -0.5,-3.8 z m 19.1,0 4,-0.2 c 0.1,1.3 0.3,2.2 0.7,2.6 0.6,0.7 1.8,1.1 3.4,1.1 1.4,0 2.4,-0.2 3,-0.7 0.6,-0.5 0.9,-1.1 0.9,-1.8 0,-0.6 -0.3,-1.1 -0.8,-1.5 -0.4,-0.3 -1.3,-0.8 -2.9,-1.5 -1.6,-0.7 -2.8,-1.3 -3.5,-1.7 -0.7,-0.5 -1.3,-1.1 -1.7,-1.8 -0.4,-0.7 -0.6,-1.6 -0.6,-2.6 0,-1.699997 0.6,-3.199997 1.9,-4.299997 1.3,-1.1 3.1,-1.7 5.4,-1.7 2.4,0 4.3,0.6 5.6,1.7 1.3,1.1 2.1,2.6 2.2,4.499997 l -4.1,0.2 c -0.1,-1 -0.5,-1.699997 -1.1,-2.299997 -0.6,-0.5 -1.5,-0.8 -2.7,-0.8 -1.2,0 -2,0.2 -2.5,0.6 -0.5,0.4 -0.8,0.9 -0.8,1.599997 0,0.6 0.2,1.1 0.7,1.5 0.5,0.4 1.5,0.9 3,1.6 2.4,1 3.9,1.8 4.5,2.5 1,0.9 1.4,2.1 1.4,3.6 0,1.8 -0.7,3.4 -2.2,4.7 -1.4,1.3 -3.4,1.9 -6,1.9 -1.8,0 -3.3,-0.3 -4.6,-0.9 -1.3,-0.6 -2.2,-1.4 -2.7,-2.5 -0.3,-1.3 -0.5,-2.5 -0.5,-3.8 z"
   id="path1477" /><g
   transform="matrix(0.02402843,0,0,0.02402843,155.5402,3.68897)"
   id="g2081"><g
     id="g2076"
     transform="translate(73.505017,13.198933)"><circle
       id="circle2062"
       stroke-width="20"
       stroke="#000000"
       fill="none"
       r="88.5"
       cy="100"
       cx="100"
       style="stroke:#0057b7;stroke-opacity:1" /><path
       id="path2064"
       d="m 94.6,92 c 5.5,0 9.5,-1.1 11.9,-3.2 2.4,-2 3.7,-5.4 3.7,-10.2 0,-4.7 -1.3,-8 -3.7,-10.1 -2.4,-2 -6.4,-3 -11.9,-3 H 83.4 V 92 h 11.2 m -11.2,18.3 v 39 H 56.8 V 46.2 h 40.6 c 13.6,0 23.5,2.3 29.8,6.9 6.4,4.5 9.5,11.7 9.5,21.6 0,6.8 -1.6,12.4 -4.9,16.8 -3.3,4.3 -8.2,7.6 -14.9,9.6 3.7,0.9 6.9,2.8 9.8,5.7 2.9,2.9 5.8,7.3 8.7,13.3 l 14.5,29.2 H 121.6 L 109,123.7 c -2.5,-5.1 -5.1,-8.7 -7.7,-10.5 -2.6,-1.9 -6.1,-2.9 -10.4,-2.9 h -7.5"
       style="fill:#0057b7;fill-opacity:1" /></g></g></svg>
